<svg width="74" height="74" viewBox="0 0 74 74" fill="none" xmlns="http://www.w3.org/2000/svg">
<path d="M22.6914 4.33594C22.0988 4.33594 21.6074 4.82734 21.6074 5.41992C21.6074 6.0125 22.0988 6.50391 22.6914 6.50391C23.284 6.50391 23.7754 6.0125 23.7754 5.41992C23.7754 4.82734 23.2984 4.33594 22.6914 4.33594ZM27.0273 4.33594C26.4348 4.33594 25.9434 4.82734 25.9434 5.41992C25.9434 6.0125 26.4348 6.50391 27.0273 6.50391C27.6199 6.50391 28.1113 6.0125 28.1113 5.41992C28.1113 4.82734 27.6344 4.33594 27.0273 4.33594ZM18.3555 4.33594C17.7629 4.33594 17.2715 4.82734 17.2715 5.41992C17.2715 6.0125 17.7629 6.50391 18.3555 6.50391C18.948 6.50391 19.4395 6.0125 19.4395 5.41992C19.4395 4.82734 18.9625 4.33594 18.3555 4.33594ZM69.5484 4.33594H61.0645V2.81836C61.0645 1.25742 59.7926 0 58.2461 0H15.7539C14.2074 0 12.9355 1.25742 12.9355 2.81836V6.21484H5.41992C2.42812 6.21484 0 8.65742 0 11.6348V52.4648C0 55.4566 2.42812 57.8848 5.41992 57.8848H30.7707L29.9469 64.0273H28.7328C27.7355 64.0273 26.8395 64.7066 26.5793 65.675L25.0473 71.1816C24.8594 71.8609 24.9895 72.5691 25.423 73.1328C25.8566 73.6965 26.507 74.0145 27.2008 74.0145H46.7848C47.493 74.0145 48.1434 73.6965 48.5625 73.1328C48.9816 72.5691 49.1262 71.8609 48.9383 71.1816L47.4062 65.675C47.1316 64.7066 46.25 64.0273 45.2527 64.0273H44.0387L43.2148 57.8848H68.5656C71.5574 57.8848 73.9855 55.4566 73.9855 52.4648V8.7875C74 6.33047 72.0055 4.33594 69.5484 4.33594ZM15.1035 10.8398H32.6641C33.2566 10.8398 33.748 10.3484 33.748 9.75586C33.748 9.16328 33.2566 8.67188 32.6641 8.67188H15.1035V2.81836C15.1035 2.45703 15.3926 2.16797 15.7539 2.16797H58.2461C58.6074 2.16797 58.8965 2.45703 58.8965 2.81836V4.33594H51.7566C49.343 4.33594 47.3629 6.27266 47.3051 8.67188H37.7227C37.1301 8.67188 36.6387 9.16328 36.6387 9.75586C36.6387 10.3484 37.1301 10.8398 37.7227 10.8398H47.2906V16.4621C47.2906 18.9191 49.2852 20.9137 51.7422 20.9137H53.8957V22.9949C53.8957 23.6164 54.2715 24.1801 54.8352 24.4113C55.3988 24.6426 56.0637 24.527 56.5117 24.0789L58.8965 21.6941V38.6188C58.8965 39.2113 59.3879 39.7027 59.9805 39.7027C60.573 39.7027 61.0645 39.2113 61.0645 38.6188V20.9137H67.4961V49.1984H61.0645V43.6773C61.0645 43.0848 60.573 42.5934 59.9805 42.5934C59.3879 42.5934 58.8965 43.0848 58.8965 43.6773V49.1984H50.3836V42.7812C50.3836 39.8473 48.6203 37.2602 45.8887 36.1762L42.9547 35.0199C42.2031 34.7309 41.7262 34.0227 41.7262 33.2133V31.9848C43.5473 30.5684 44.718 28.357 44.718 25.8855V17.7918C44.718 15.277 42.6801 13.2391 40.1652 13.2391H33.8348C31.3199 13.2391 29.282 15.277 29.282 17.7918V25.8855C29.282 28.357 30.4527 30.5684 32.2738 31.9848V33.2133C32.2738 34.0227 31.7969 34.7309 31.0453 35.0199L28.1113 36.1762C25.3797 37.2457 23.6164 39.8473 23.6164 42.7812V49.1984H15.1035V10.8398ZM42.7957 45.1227C42.2031 45.1227 41.7117 45.6141 41.7117 46.2066V49.1984H32.2883V46.2066C32.2883 45.6141 31.7969 45.1227 31.2043 45.1227C30.6117 45.1227 30.1203 45.6141 30.1203 46.2066V49.1984H25.7844V42.7812C25.7844 40.7434 27.0129 38.9367 28.9062 38.1996L31.5656 37.1445C33.0109 38.5609 34.9477 39.3559 36.9855 39.3559C39.0379 39.3559 40.9746 38.5609 42.4055 37.1445L45.0793 38.1996C46.9727 38.9512 48.2012 40.7434 48.2012 42.7812V49.1984H43.8652V46.2066C43.8797 45.6141 43.3883 45.1227 42.7957 45.1227ZM32.2594 24.2668C33.777 24.2668 35.2945 24.0066 36.6965 23.5008C37.5059 23.2117 38.3008 22.8359 39.0523 22.3879C39.4426 22.8215 39.9773 23.2984 40.7145 23.6453C41.3793 23.9633 42.0152 24.1078 42.5645 24.1512V25.9289C42.5645 28.993 40.0785 31.4789 37.0145 31.4789C33.9504 31.4789 31.4645 28.993 31.4645 25.9289V24.2523C31.7246 24.2523 31.9848 24.2668 32.2594 24.2668ZM31.45 22.0555V17.8062C31.45 16.491 32.5195 15.4215 33.8348 15.4215H40.1652C41.4805 15.4215 42.55 16.491 42.55 17.8062V21.9543C42.2754 21.9109 41.9574 21.8387 41.6539 21.6797C41.0035 21.3617 40.6133 20.8992 40.382 20.5668C40.1797 20.2633 39.8617 20.0465 39.5004 19.9742C39.1391 19.902 38.7633 19.9742 38.4598 20.191C37.6793 20.7258 36.841 21.1449 35.9738 21.4629C34.543 21.9688 32.9965 22.1711 31.45 22.0555ZM40.5555 35.9305C39.5582 36.7543 38.3152 37.2168 37 37.2168C35.6848 37.2168 34.4273 36.7543 33.4445 35.9305C34.0805 35.2078 34.4418 34.2539 34.4418 33.2422V33.1988C35.2367 33.4879 36.1039 33.6324 37 33.6324C37.8961 33.6324 38.7633 33.4734 39.5582 33.1988V33.2422C39.5582 34.2539 39.934 35.1934 40.5555 35.9305ZM45.2672 66.1809C45.2961 66.1809 45.325 66.1953 45.3395 66.2387L46.8715 71.7453C46.8859 71.7742 46.8426 71.8465 46.7992 71.832H27.2152C27.1719 71.832 27.1285 71.7742 27.143 71.7453L28.675 66.2387C28.6895 66.2098 28.7184 66.1809 28.7473 66.1809H45.2672ZM32.1293 64.0129L32.9531 57.8703H41.0469L41.8707 64.0129H32.1293ZM71.832 52.4648C71.832 54.257 70.3723 55.7168 68.5801 55.7168H5.41992C3.62773 55.7168 2.16797 54.257 2.16797 52.4648V11.6348C2.16797 9.84258 3.62773 8.38281 5.41992 8.38281H12.9355V10.5508H5.99805C5.0875 10.5508 4.33594 11.3023 4.33594 12.2129V49.7188C4.33594 50.6293 5.0875 51.3809 5.99805 51.3809H68.002C68.9125 51.3809 69.6641 50.6293 69.6641 49.7188V20.9137C70.459 20.8992 71.1961 20.668 71.832 20.2777V52.4648ZM12.9355 12.7188V49.1984H6.50391V12.7188H12.9355ZM71.832 16.4621C71.832 17.7195 70.8059 18.7457 69.5484 18.7457C68.3344 18.7457 60.7754 18.7457 59.5613 18.7457C59.0555 18.7457 58.593 18.9336 58.2461 19.2949L56.0781 21.4629V20.6246C56.0781 19.5984 55.2398 18.7602 54.2137 18.7602H51.7711C50.5137 18.7602 49.4875 17.734 49.4875 16.4766V8.7875C49.4875 7.53008 50.5137 6.50391 51.7711 6.50391H69.5629C70.8203 6.50391 71.8465 7.53008 71.8465 8.7875L71.832 16.4621ZM68.0164 13.716H53.2887C52.6961 13.716 52.2047 14.2074 52.2047 14.8C52.2047 15.3926 52.6961 15.884 53.2887 15.884H68.0164C68.609 15.884 69.1004 15.3926 69.1004 14.8C69.1004 14.2074 68.609 13.716 68.0164 13.716ZM68.0164 9.38008H53.2887C52.6961 9.38008 52.2047 9.87148 52.2047 10.4641C52.2047 11.0566 52.6961 11.548 53.2887 11.548H68.0164C68.609 11.548 69.1004 11.0566 69.1004 10.4641C69.1004 9.87148 68.609 9.38008 68.0164 9.38008Z" fill="white"/>
</svg>
