<svg width="72" height="72" viewBox="0 0 72 72" fill="none" xmlns="http://www.w3.org/2000/svg">
<path d="M64.4148 30.1031L61.6254 29.5395C60.7004 29.3516 59.9922 28.6434 59.8043 27.7184L59.2984 25.1602C60.368 24.3652 61.2352 23.3246 61.8133 22.125H62.6082C65.152 22.125 67.2332 20.0438 67.2332 17.5C67.2332 16.4594 66.8719 15.5055 66.2938 14.7395L66.7129 13.4676C67.0598 12.427 67.2332 11.3574 67.2332 10.2734C67.2188 4.69453 62.6805 0.15625 57.1016 0.15625H54.0375C51.1902 0.15625 48.5453 1.50039 46.8543 3.76953L46.016 3.98633C45.3656 4.14531 44.7586 4.43437 44.2238 4.7957H2.46875V34.8582H13.7133L11.9789 41.7957H0.15625V44.1082H71.8438V39.1797C71.8438 34.7715 68.7219 30.9559 64.4148 30.1031ZM30.4789 34.8438L32.2133 41.7812H20.1449L21.8793 34.8438H30.4789ZM32.8492 34.8438H38.2402C37.5465 36.1445 37.1562 37.6187 37.1562 39.1652V41.7812H34.5836L32.8492 34.8438ZM39.4688 39.1652C39.4688 35.8699 41.8102 33.0082 45.0477 32.3578L46.0305 32.1555L50.3953 41.7668H39.4688V39.1652ZM50.2219 30.5223L52.3754 31.5918L49.3836 33.9766L48.3285 31.6641C49.0512 31.4328 49.7016 31.0426 50.2219 30.5223ZM54.818 34.8438H54.1676L53.7051 33.4852L54.4855 32.8637L55.266 33.4852L54.818 34.8438ZM52.1586 36.0867L51.6672 39.0062L50.3664 36.159L51.7828 35.0172L52.1586 36.0867ZM54.3266 37.1562H54.6734L55.4395 41.7812H53.5461L54.3266 37.1562ZM56.8414 36.0867L57.2027 35.0172L58.6191 36.159L57.3184 39.0062L56.8414 36.0867ZM60.6715 31.6641L59.6164 33.9766L56.6391 31.5918L58.7926 30.5223C59.2984 31.0426 59.9488 31.4328 60.6715 31.6641ZM57.5352 28.1809C57.5641 28.2965 57.593 28.4121 57.6219 28.5133L54.5 30.0887L51.3637 28.5277C51.3926 28.4121 51.4359 28.3109 51.4504 28.1953L51.8262 26.302C52.6645 26.591 53.5605 26.7645 54.4855 26.7645C55.4105 26.7645 56.3066 26.591 57.1449 26.302L57.5352 28.1809ZM60.2812 18.6562C60.2812 21.8504 57.6941 24.4375 54.5 24.4375C51.3059 24.4375 48.7188 21.8504 48.7188 18.6562V14.1758C48.7188 12.5859 49.7883 11.2129 51.3348 10.8082C51.8695 12.0223 53.0836 12.875 54.5 12.875H59.125C59.7609 12.875 60.2812 13.3953 60.2812 14.0312V18.6562ZM62.5938 19.8125H62.507C62.5648 19.4367 62.5938 19.0465 62.5938 18.6562V15.1875C63.8656 15.1875 64.9062 16.2281 64.9062 17.5C64.9062 18.7719 63.8656 19.8125 62.5938 19.8125ZM46.5797 6.21211L48.2707 5.79297L48.5164 5.41719C49.7449 3.56719 51.8117 2.46875 54.0375 2.46875H57.1016C61.4086 2.46875 64.9062 5.96641 64.9062 10.259C64.9062 11.0973 64.7762 11.9211 64.5016 12.7305L64.3426 13.2219C63.8078 13.0051 63.2152 12.875 62.5938 12.875H62.377C61.9 11.5309 60.6281 10.5625 59.125 10.5625H54.5C53.8641 10.5625 53.3438 10.0422 53.3438 9.40625C53.3438 8.77031 53.8641 8.25 54.5 8.25H55.6562V5.9375H54.5C52.9102 5.9375 51.566 7.00703 51.1613 8.4668L50.7855 8.55352C48.6465 9.08828 47.0566 10.7793 46.5652 12.8605H46.4062C45.8281 12.8605 45.2789 12.9762 44.7586 13.1785C44.4551 12.109 44.0938 10.6059 44.0938 9.3918C44.0938 7.88867 45.1199 6.58789 46.5797 6.21211ZM46.4062 15.1875V18.6562C46.4062 19.0465 46.4496 19.4367 46.493 19.8125H46.4062C45.1344 19.8125 44.0938 18.7719 44.0938 17.5C44.0938 16.2281 45.1344 15.1875 46.4062 15.1875ZM4.78125 7.09375H42.3016C41.9836 7.80195 41.7812 8.58242 41.7812 9.40625C41.7812 11.2707 42.4316 13.5543 42.793 14.6527C42.1715 15.4332 41.7812 16.416 41.7812 17.5C41.7812 20.0438 43.8625 22.125 46.4062 22.125H47.2012C47.7793 23.3391 48.6465 24.3797 49.716 25.1602L49.2102 27.7184C49.0223 28.6434 48.3141 29.3516 47.3891 29.5395L44.5996 30.1031C42.8074 30.4645 41.232 31.3316 39.9891 32.5312H4.78125V7.09375ZM16.0836 34.8438H19.4801L17.7457 41.7812H14.3492L16.0836 34.8438ZM69.5312 41.7812H58.6047L62.9695 32.1699L63.9523 32.3723C67.1898 33.0227 69.5312 35.8844 69.5312 39.1797V41.7812Z" fill="white"/>
<path d="M39.4688 11.7188H25.5938V16.3438H20.9688V9.40625H7.09375V23.2812H14.0312V30.2188H30.2188V23.2812H39.4688V11.7188ZM9.40625 11.7188H18.6562V20.9688H9.40625V11.7188ZM27.9062 27.9062H16.3438V23.2812H20.9688V18.6562H27.9062V27.9062ZM37.1562 20.9688H30.2188V16.3438H27.9062V14.0312H37.1562V20.9688Z" fill="white"/>
<path d="M64.3137 60.6859C66.1203 59.1683 67.2188 56.9136 67.2188 54.4999V53.3437C67.2188 49.5136 64.1113 46.4062 60.2812 46.4062H57.9688C54.1387 46.4062 51.0312 49.5136 51.0312 53.3437V54.4999C51.0312 56.9136 52.1297 59.1683 53.9363 60.6859C51.1324 61.4808 48.8488 63.4031 47.5625 65.9179C46.2617 63.4031 43.9637 61.4952 41.2031 60.6859C42.9664 59.1972 44.0938 56.9714 44.0938 54.4855V53.3292C44.0938 49.4991 40.9863 46.3917 37.1562 46.3917H34.8438C31.0137 46.3917 27.9062 49.4991 27.9062 53.3292V54.4855C27.9062 56.9714 29.0336 59.1972 30.7969 60.6859C28.0219 61.4808 25.7383 63.4031 24.4375 65.9179C23.1367 63.4031 20.8387 61.4808 18.0781 60.6714C19.8414 59.1827 20.9688 56.957 20.9688 54.4855V52.173C20.9688 48.9788 18.3816 46.3917 15.1875 46.3917H7.09375C5.82188 46.3917 4.78125 47.4323 4.78125 48.7042V54.4855C4.78125 56.9714 5.90859 59.1972 7.67188 60.6859C3.33594 61.9577 0.15625 65.9468 0.15625 70.6874V71.8437H71.8438V70.6874C71.8438 65.9613 68.7074 61.9433 64.3137 60.6859ZM61.4375 62.5937C61.4375 63.8656 60.3969 64.9062 59.125 64.9062C57.8531 64.9062 56.8125 63.8656 56.8125 62.5937C56.8125 62.4781 56.8414 62.3769 56.8559 62.2613C57.5785 62.4781 58.3445 62.5937 59.125 62.5937C59.9055 62.5937 60.657 62.4781 61.3941 62.2613C61.4086 62.3769 61.4375 62.4781 61.4375 62.5937ZM53.3438 54.4999V53.3437C53.3438 50.7999 55.425 48.7187 57.9688 48.7187H60.2812C62.825 48.7187 64.9062 50.7999 64.9062 53.3437V54.4999C64.9062 56.7257 63.6055 58.7781 61.5676 59.732C60.0789 60.4402 58.1711 60.4546 56.668 59.732C54.6445 58.7781 53.3438 56.7257 53.3438 54.4999ZM30.2188 54.4999V53.3437C30.2188 50.7999 32.3 48.7187 34.8438 48.7187H37.1562C39.7 48.7187 41.7812 50.7999 41.7812 53.3437V54.4999C41.7812 57.6941 39.1941 60.2812 36 60.2812C32.8059 60.2812 30.2188 57.6941 30.2188 54.4999ZM33.6875 62.5937H38.3125C42.3883 62.5937 45.7559 65.6144 46.3195 69.5312H25.6805C26.2441 65.6144 29.6117 62.5937 33.6875 62.5937ZM7.09375 54.4999V48.7187H15.1875C17.0953 48.7187 18.6562 50.2796 18.6562 52.1874V54.4999C18.6562 57.6941 16.0691 60.2812 12.875 60.2812C9.68086 60.2812 7.09375 57.6941 7.09375 54.4999ZM2.55547 69.5312C3.11914 65.6144 6.50117 62.5937 10.5625 62.5937H15.1875C19.2633 62.5937 22.6309 65.6144 23.1945 69.5312H2.55547ZM48.8055 69.5312C49.2535 66.3804 51.4938 63.8077 54.5289 62.9261C54.7023 65.3253 56.6824 67.2187 59.125 67.2187C61.5676 67.2187 63.5477 65.3109 63.7211 62.9261C66.7562 63.8077 69.0109 66.3804 69.459 69.5312H48.8055Z" fill="white"/>
</svg>
