<svg width="74" height="74" viewBox="0 0 74 74" fill="none" xmlns="http://www.w3.org/2000/svg">
<path d="M71.8609 6.11367C73.0316 6.11367 74 5.15977 74 3.97461V2.13906C74 0.953906 73.0461 0 71.8609 0H32.2016C31.609 0 31.1176 0.491406 31.1176 1.08398C31.1176 1.67656 31.609 2.16797 32.2016 2.16797H71.832V3.9457H18.9191V2.16797H27.8656C28.4582 2.16797 28.9496 1.67656 28.9496 1.08398C28.9496 0.491406 28.4582 0 27.8656 0H18.8902C17.7195 0 16.7512 0.953906 16.7512 2.13906V3.98906C16.7512 5.15977 17.7051 6.12813 18.8902 6.12813H20.7691V20.1621C20.6824 20.1621 20.6102 20.1621 20.5234 20.1621H13.9039C13.9906 19.8008 13.875 19.3961 13.5715 19.1215C13.1234 18.7168 12.4441 18.7457 12.0395 19.1938L11.8371 19.4105L11.6203 19.0203C11.3313 18.5 10.6809 18.2977 10.1461 18.5867C9.62578 18.8758 9.42344 19.5262 9.7125 20.0609L9.77031 20.1766H8.45508C6.04141 20.1766 3.72891 21.2172 2.12461 23.0238C0.534766 24.8016 -0.216797 27.2297 0.0722656 29.6289L1.30078 39.7027C1.47422 41.177 2.71719 42.3043 4.19141 42.3477C4.33594 44.3422 5.04414 46.1777 6.15703 47.6953C2.41367 49.5309 0 53.332 0 57.5812V63.3191C0 63.9117 0.491406 64.4031 1.08398 64.4031C1.67656 64.4031 2.16797 63.9117 2.16797 63.3191V57.5812C2.16797 55.1965 3.12187 52.9852 4.71172 51.3664L10.2328 58.7086C10.4496 58.9832 10.7676 59.1422 11.1 59.1422C11.1578 59.1422 11.2012 59.1422 11.259 59.1277L9.61133 71.832H2.16797V67.6551C2.16797 67.0625 1.67656 66.5711 1.08398 66.5711C0.491406 66.5711 0 67.0625 0 67.6551V72.916C0 73.5086 0.491406 74 1.08398 74H27.9234C28.516 74 29.0074 73.5086 29.0074 72.916V57.5812C29.0074 54.7051 27.909 52.0457 26.0445 50.0656H61.975C62.5676 50.0656 63.059 49.5742 63.059 48.9816C63.059 48.3891 62.5676 47.8977 61.975 47.8977H23.2262C23.1105 47.8254 22.9805 47.7676 22.8648 47.7098C23.2262 47.2039 23.5586 46.6836 23.8332 46.1199H71.832V47.8977H66.3109C65.7184 47.8977 65.227 48.3891 65.227 48.9816C65.227 49.5742 65.7184 50.0656 66.3109 50.0656H71.8609C73.0316 50.0656 74 49.1117 74 47.9266V46.0766C74 44.9059 73.0461 43.9375 71.8609 43.9375H69.982V6.11367H71.8609ZM3.4543 39.4426L2.24023 29.3687C2.02344 27.5766 2.58711 25.7844 3.77227 24.4402C4.97188 23.0961 6.67734 22.3156 8.48398 22.3156H20.5234C22.3301 22.3156 24.0355 23.0816 25.2352 24.4402C26.4348 25.7844 26.984 27.591 26.7672 29.3687L25.5531 39.4426C25.5098 39.8184 25.2207 40.1219 24.8449 40.1797V33.9359C24.8449 33.5168 24.6715 33.1121 24.3535 32.823C24.0355 32.534 23.6164 32.3895 23.1973 32.4328C21.2605 32.5918 19.8297 32.1293 18.2977 30.7996C17.7773 30.3516 17.0113 30.3082 16.4477 30.7129C14.5109 32.057 10.3195 32.7363 5.78125 32.4184C5.36211 32.3895 4.94297 32.534 4.63945 32.823C4.33594 33.1121 4.1625 33.5168 4.1625 33.9359V40.1941C3.78672 40.1219 3.49766 39.8184 3.4543 39.4426ZM13.2969 58.0148L14.5109 57.2922L15.725 58.0148L14.5109 59.2289L13.2969 58.0148ZM6.33047 41.6105V34.6152C9.69805 34.7742 14.3953 34.4852 17.2715 32.7652C18.4855 33.7191 20.1621 34.673 22.6914 34.6297V41.6105C22.6914 46.1199 19.0203 49.791 14.5109 49.791C10.0016 49.791 6.33047 46.1199 6.33047 41.6105ZM14.4965 51.9445C14.9445 51.9445 15.3781 51.9156 15.8117 51.8578L14.4965 53.968L13.1812 51.8578C13.6293 51.9156 14.0629 51.9445 14.4965 51.9445ZM17.6184 56.6418L15.9996 55.6734L18.9191 50.9617C19.7863 50.557 20.5813 50.0223 21.2895 49.4008C21.7375 49.5742 22.1711 49.791 22.5758 50.0367L17.6184 56.6418ZM6.41719 50.0367C6.82188 49.791 7.25547 49.5742 7.70352 49.4008C8.41172 50.0223 9.22109 50.557 10.0738 50.9617L13.0078 55.6734L11.3891 56.6418L6.41719 50.0367ZM13.2102 60.9777C13.5859 61.3102 14.0484 61.4691 14.5109 61.4691C14.9734 61.4691 15.4359 61.2957 15.8117 60.9777L17.1992 71.832H11.7937L13.2102 60.9777ZM26.8395 71.832H19.3961L17.7484 59.1422C17.8062 59.1422 17.8496 59.1566 17.9074 59.1566C18.2398 59.1566 18.5578 59.0121 18.7746 58.723L24.2957 51.3809C25.8855 52.9996 26.8395 55.1965 26.8395 57.5957V71.832ZM67.8141 43.9375H24.5848C24.7004 43.4172 24.7871 42.8969 24.8305 42.3477C26.3047 42.2898 27.5332 41.177 27.7211 39.7027L28.9352 29.6289C29.2242 27.2297 28.4727 24.816 26.8684 22.9949C25.8133 21.7953 24.4402 20.9426 22.9516 20.4945V6.11367H67.8285L67.8141 43.9375Z" fill="white"/>
</svg>
